<mxfile host="app.diagrams.net" agent="Mozilla/5.0 (Windows NT 10.0; Win64; x64) AppleWebKit/537.36 (KHTML, like Gecko) Chrome/136.0.0.0 Safari/537.36" version="27.0.6" pages="2">
  <diagram name="email" id="H2KB_m5Gr2wm3D5CxMwi">
    <mxGraphModel dx="900" dy="1905" grid="1" gridSize="10" guides="1" tooltips="1" connect="1" arrows="1" fold="1" page="1" pageScale="1" pageWidth="850" pageHeight="1100" math="0" shadow="0">
      <root>
        <mxCell id="0" />
        <mxCell id="1" parent="0" />
        <mxCell id="egKCZBeAwwwdmjYjbh6D-1" value="" style="rounded=0;whiteSpace=wrap;html=1;fillColor=#ffe6cc;strokeColor=#d79b00;" vertex="1" parent="1">
          <mxGeometry x="700" width="670" height="530" as="geometry" />
        </mxCell>
        <mxCell id="egKCZBeAwwwdmjYjbh6D-2" value="Contact sytem - email" style="text;html=1;align=left;verticalAlign=top;whiteSpace=wrap;rounded=0;" vertex="1" parent="1">
          <mxGeometry x="701" width="130" height="20" as="geometry" />
        </mxCell>
        <mxCell id="egKCZBeAwwwdmjYjbh6D-3" value="" style="rounded=0;whiteSpace=wrap;html=1;fillColor=#dae8fc;strokeColor=#6c8ebf;" vertex="1" parent="1">
          <mxGeometry x="700" y="-80" width="670" height="80" as="geometry" />
        </mxCell>
        <mxCell id="egKCZBeAwwwdmjYjbh6D-4" value="News generator" style="text;html=1;align=left;verticalAlign=top;whiteSpace=wrap;rounded=0;" vertex="1" parent="1">
          <mxGeometry x="701" y="-80" width="130" height="20" as="geometry" />
        </mxCell>
        <mxCell id="egKCZBeAwwwdmjYjbh6D-74" style="edgeStyle=none;curved=0;rounded=0;orthogonalLoop=1;jettySize=auto;html=1;exitX=0.655;exitY=0.995;exitDx=0;exitDy=0;exitPerimeter=0;entryX=0.328;entryY=0.009;entryDx=0;entryDy=0;fontSize=12;startSize=8;endSize=8;entryPerimeter=0;" edge="1" parent="1" source="egKCZBeAwwwdmjYjbh6D-6" target="egKCZBeAwwwdmjYjbh6D-71">
          <mxGeometry relative="1" as="geometry">
            <Array as="points">
              <mxPoint x="1270" y="170" />
              <mxPoint x="1220" y="170" />
            </Array>
          </mxGeometry>
        </mxCell>
        <mxCell id="egKCZBeAwwwdmjYjbh6D-6" value="" style="shape=cylinder3;whiteSpace=wrap;html=1;boundedLbl=1;backgroundOutline=1;size=15;" vertex="1" parent="1">
          <mxGeometry x="1230" y="-50" width="60" height="80" as="geometry" />
        </mxCell>
        <mxCell id="egKCZBeAwwwdmjYjbh6D-8" value="Need to make interview. Call or email?" style="text;html=1;align=center;verticalAlign=middle;whiteSpace=wrap;rounded=0;" vertex="1" parent="1">
          <mxGeometry x="995" y="-54" width="91" height="50" as="geometry" />
        </mxCell>
        <mxCell id="egKCZBeAwwwdmjYjbh6D-58" style="edgeStyle=none;curved=1;rounded=0;orthogonalLoop=1;jettySize=auto;html=1;exitX=0;exitY=0.5;exitDx=0;exitDy=0;entryX=1;entryY=0.5;entryDx=0;entryDy=0;fontSize=12;startSize=8;endSize=8;" edge="1" parent="1" source="egKCZBeAwwwdmjYjbh6D-9" target="egKCZBeAwwwdmjYjbh6D-57">
          <mxGeometry relative="1" as="geometry" />
        </mxCell>
        <mxCell id="egKCZBeAwwwdmjYjbh6D-9" value="Generate emails (html &amp;amp; plain text) &amp;amp; unique id for it" style="rounded=0;whiteSpace=wrap;html=1;fillColor=light-dark(#F0EFD1,#EDEDED);" vertex="1" parent="1">
          <mxGeometry x="800" y="34" width="120" height="60" as="geometry" />
        </mxCell>
        <mxCell id="egKCZBeAwwwdmjYjbh6D-11" value="" style="endArrow=none;html=1;rounded=0;fontSize=12;startSize=8;endSize=8;curved=1;exitX=1;exitY=0.5;exitDx=0;exitDy=0;entryX=0;entryY=0.5;entryDx=0;entryDy=0;" edge="1" parent="1" source="egKCZBeAwwwdmjYjbh6D-9" target="egKCZBeAwwwdmjYjbh6D-27">
          <mxGeometry width="50" height="50" relative="1" as="geometry">
            <mxPoint x="934" y="104" as="sourcePoint" />
            <mxPoint x="984" y="54" as="targetPoint" />
          </mxGeometry>
        </mxCell>
        <mxCell id="egKCZBeAwwwdmjYjbh6D-14" value="Save information (id, questions, etc) to database" style="rounded=0;whiteSpace=wrap;html=1;fillColor=#F0EFD1;" vertex="1" parent="1">
          <mxGeometry x="800" y="140" width="120" height="60" as="geometry" />
        </mxCell>
        <mxCell id="egKCZBeAwwwdmjYjbh6D-17" style="edgeStyle=none;curved=0;rounded=0;orthogonalLoop=1;jettySize=auto;html=1;exitX=1;exitY=0.5;exitDx=0;exitDy=0;entryX=0;entryY=1;entryDx=0;entryDy=-15;entryPerimeter=0;fontSize=12;startSize=8;endSize=8;" edge="1" parent="1" source="egKCZBeAwwwdmjYjbh6D-14" target="egKCZBeAwwwdmjYjbh6D-6">
          <mxGeometry relative="1" as="geometry">
            <Array as="points">
              <mxPoint x="1050" y="170" />
              <mxPoint x="1050" y="15" />
            </Array>
          </mxGeometry>
        </mxCell>
        <mxCell id="egKCZBeAwwwdmjYjbh6D-32" style="edgeStyle=none;curved=1;rounded=0;orthogonalLoop=1;jettySize=auto;html=1;exitX=0.5;exitY=1;exitDx=0;exitDy=0;entryX=0.5;entryY=0;entryDx=0;entryDy=0;fontSize=12;startSize=8;endSize=8;" edge="1" parent="1" source="egKCZBeAwwwdmjYjbh6D-21" target="egKCZBeAwwwdmjYjbh6D-31">
          <mxGeometry relative="1" as="geometry" />
        </mxCell>
        <mxCell id="egKCZBeAwwwdmjYjbh6D-21" value="Check if we have new emails (replies)" style="rounded=1;whiteSpace=wrap;html=1;fillColor=light-dark(#C6FFBE,#EDEDED);" vertex="1" parent="1">
          <mxGeometry x="950" y="220" width="120" height="60" as="geometry" />
        </mxCell>
        <mxCell id="egKCZBeAwwwdmjYjbh6D-18" value="" style="html=1;verticalLabelPosition=bottom;align=center;labelBackgroundColor=#ffffff;verticalAlign=top;strokeWidth=2;strokeColor=#0080F0;shadow=0;dashed=0;shape=mxgraph.ios7.icons.reload;" vertex="1" parent="1">
          <mxGeometry x="1025" y="200" width="24" height="27" as="geometry" />
        </mxCell>
        <mxCell id="egKCZBeAwwwdmjYjbh6D-22" value="DB" style="text;html=1;align=center;verticalAlign=middle;whiteSpace=wrap;rounded=0;" vertex="1" parent="1">
          <mxGeometry x="1230" y="-15" width="60" height="30" as="geometry" />
        </mxCell>
        <mxCell id="egKCZBeAwwwdmjYjbh6D-23" value="" style="html=1;verticalLabelPosition=bottom;align=center;labelBackgroundColor=#ffffff;verticalAlign=top;strokeWidth=2;strokeColor=#0080F0;shadow=0;dashed=0;shape=mxgraph.ios7.icons.mail;" vertex="1" parent="1">
          <mxGeometry x="795" y="234.5" width="30" height="16.5" as="geometry" />
        </mxCell>
        <mxCell id="egKCZBeAwwwdmjYjbh6D-24" value="" style="sketch=0;pointerEvents=1;shadow=0;dashed=0;html=1;strokeColor=none;fillColor=#505050;labelPosition=center;verticalLabelPosition=bottom;verticalAlign=top;outlineConnect=0;align=center;shape=mxgraph.office.communications.discovery_search_mailbox;" vertex="1" parent="1">
          <mxGeometry x="740" y="231" width="55" height="49" as="geometry" />
        </mxCell>
        <mxCell id="egKCZBeAwwwdmjYjbh6D-25" value="" style="endArrow=classic;html=1;rounded=0;fontSize=12;startSize=8;endSize=8;curved=1;" edge="1" parent="1">
          <mxGeometry width="50" height="50" relative="1" as="geometry">
            <mxPoint x="840" y="242.25" as="sourcePoint" />
            <mxPoint x="940" y="242.25" as="targetPoint" />
          </mxGeometry>
        </mxCell>
        <mxCell id="egKCZBeAwwwdmjYjbh6D-27" value="" style="rhombus;whiteSpace=wrap;html=1;" vertex="1" parent="1">
          <mxGeometry x="980" y="49" width="30" height="30" as="geometry" />
        </mxCell>
        <mxCell id="egKCZBeAwwwdmjYjbh6D-29" value="" style="endArrow=none;html=1;rounded=0;fontSize=12;startSize=8;endSize=8;curved=1;exitX=0.5;exitY=0;exitDx=0;exitDy=0;" edge="1" parent="1" source="egKCZBeAwwwdmjYjbh6D-27">
          <mxGeometry width="50" height="50" relative="1" as="geometry">
            <mxPoint x="994.5" y="40" as="sourcePoint" />
            <mxPoint x="994.5" y="-70" as="targetPoint" />
          </mxGeometry>
        </mxCell>
        <mxCell id="egKCZBeAwwwdmjYjbh6D-30" value="&lt;b&gt;Email&lt;/b&gt;" style="text;html=1;align=center;verticalAlign=middle;whiteSpace=wrap;rounded=0;" vertex="1" parent="1">
          <mxGeometry x="922" y="42" width="60" height="30" as="geometry" />
        </mxCell>
        <mxCell id="egKCZBeAwwwdmjYjbh6D-34" style="edgeStyle=none;curved=1;rounded=0;orthogonalLoop=1;jettySize=auto;html=1;exitX=0;exitY=0.5;exitDx=0;exitDy=0;entryX=1;entryY=0.5;entryDx=0;entryDy=0;fontSize=12;startSize=8;endSize=8;" edge="1" parent="1" source="egKCZBeAwwwdmjYjbh6D-31" target="egKCZBeAwwwdmjYjbh6D-33">
          <mxGeometry relative="1" as="geometry" />
        </mxCell>
        <mxCell id="egKCZBeAwwwdmjYjbh6D-36" style="edgeStyle=none;curved=0;rounded=0;orthogonalLoop=1;jettySize=auto;html=1;exitX=1;exitY=0.5;exitDx=0;exitDy=0;entryX=1;entryY=0.5;entryDx=0;entryDy=0;fontSize=12;startSize=8;endSize=8;" edge="1" parent="1" source="egKCZBeAwwwdmjYjbh6D-31" target="egKCZBeAwwwdmjYjbh6D-21">
          <mxGeometry relative="1" as="geometry">
            <Array as="points">
              <mxPoint x="1100" y="325" />
              <mxPoint x="1100" y="250" />
            </Array>
          </mxGeometry>
        </mxCell>
        <mxCell id="egKCZBeAwwwdmjYjbh6D-31" value="" style="rhombus;whiteSpace=wrap;html=1;" vertex="1" parent="1">
          <mxGeometry x="995" y="310" width="30" height="30" as="geometry" />
        </mxCell>
        <mxCell id="egKCZBeAwwwdmjYjbh6D-39" style="edgeStyle=none;curved=1;rounded=0;orthogonalLoop=1;jettySize=auto;html=1;exitX=0;exitY=0.5;exitDx=0;exitDy=0;entryX=1;entryY=0.5;entryDx=0;entryDy=0;fontSize=12;startSize=8;endSize=8;" edge="1" parent="1" source="egKCZBeAwwwdmjYjbh6D-33" target="egKCZBeAwwwdmjYjbh6D-35">
          <mxGeometry relative="1" as="geometry" />
        </mxCell>
        <mxCell id="egKCZBeAwwwdmjYjbh6D-33" value="Is it reply and &quot;unseen&quot;" style="rounded=1;whiteSpace=wrap;html=1;fillColor=#C6FFBE;" vertex="1" parent="1">
          <mxGeometry x="840" y="295" width="120" height="60" as="geometry" />
        </mxCell>
        <mxCell id="egKCZBeAwwwdmjYjbh6D-41" style="edgeStyle=none;curved=1;rounded=0;orthogonalLoop=1;jettySize=auto;html=1;exitX=0.5;exitY=1;exitDx=0;exitDy=0;entryX=0.5;entryY=0;entryDx=0;entryDy=0;fontSize=12;startSize=8;endSize=8;" edge="1" parent="1" source="egKCZBeAwwwdmjYjbh6D-35" target="egKCZBeAwwwdmjYjbh6D-40">
          <mxGeometry relative="1" as="geometry" />
        </mxCell>
        <mxCell id="egKCZBeAwwwdmjYjbh6D-43" style="edgeStyle=none;curved=1;rounded=0;orthogonalLoop=1;jettySize=auto;html=1;exitX=0;exitY=0.5;exitDx=0;exitDy=0;entryX=1;entryY=0.5;entryDx=0;entryDy=0;fontSize=12;startSize=8;endSize=8;" edge="1" parent="1" source="egKCZBeAwwwdmjYjbh6D-35" target="egKCZBeAwwwdmjYjbh6D-42">
          <mxGeometry relative="1" as="geometry" />
        </mxCell>
        <mxCell id="egKCZBeAwwwdmjYjbh6D-35" value="" style="rhombus;whiteSpace=wrap;html=1;" vertex="1" parent="1">
          <mxGeometry x="790" y="310" width="30" height="30" as="geometry" />
        </mxCell>
        <mxCell id="egKCZBeAwwwdmjYjbh6D-37" value="Yes" style="text;html=1;align=center;verticalAlign=middle;whiteSpace=wrap;rounded=0;" vertex="1" parent="1">
          <mxGeometry x="953" y="300" width="60" height="30" as="geometry" />
        </mxCell>
        <mxCell id="egKCZBeAwwwdmjYjbh6D-38" value="No" style="text;html=1;align=center;verticalAlign=middle;whiteSpace=wrap;rounded=0;" vertex="1" parent="1">
          <mxGeometry x="1009" y="300" width="60" height="30" as="geometry" />
        </mxCell>
        <mxCell id="egKCZBeAwwwdmjYjbh6D-48" style="edgeStyle=none;curved=1;rounded=0;orthogonalLoop=1;jettySize=auto;html=1;exitX=1;exitY=0.5;exitDx=0;exitDy=0;entryX=0;entryY=0.5;entryDx=0;entryDy=0;fontSize=12;startSize=8;endSize=8;" edge="1" parent="1" source="egKCZBeAwwwdmjYjbh6D-40" target="egKCZBeAwwwdmjYjbh6D-47">
          <mxGeometry relative="1" as="geometry" />
        </mxCell>
        <mxCell id="egKCZBeAwwwdmjYjbh6D-40" value="Check do we have stored reply to database (just in case)" style="rounded=1;whiteSpace=wrap;html=1;fillColor=#C6FFBE;" vertex="1" parent="1">
          <mxGeometry x="745" y="390" width="120" height="60" as="geometry" />
        </mxCell>
        <mxCell id="egKCZBeAwwwdmjYjbh6D-42" value="Ignore it" style="rounded=1;whiteSpace=wrap;html=1;fillColor=#C6FFBE;" vertex="1" parent="1">
          <mxGeometry x="730" y="315" width="50" height="20" as="geometry" />
        </mxCell>
        <mxCell id="egKCZBeAwwwdmjYjbh6D-44" value="Yes" style="text;html=1;align=center;verticalAlign=middle;whiteSpace=wrap;rounded=0;" vertex="1" parent="1">
          <mxGeometry x="786" y="338" width="60" height="30" as="geometry" />
        </mxCell>
        <mxCell id="egKCZBeAwwwdmjYjbh6D-45" value="No" style="text;html=1;align=center;verticalAlign=middle;whiteSpace=wrap;rounded=0;" vertex="1" parent="1">
          <mxGeometry x="755" y="295" width="60" height="30" as="geometry" />
        </mxCell>
        <mxCell id="egKCZBeAwwwdmjYjbh6D-46" value="" style="endArrow=none;dashed=1;html=1;dashPattern=1 3;strokeWidth=2;rounded=0;fontSize=12;startSize=8;endSize=8;curved=1;" edge="1" parent="1">
          <mxGeometry width="50" height="50" relative="1" as="geometry">
            <mxPoint x="995" y="116" as="sourcePoint" />
            <mxPoint x="995" y="76" as="targetPoint" />
          </mxGeometry>
        </mxCell>
        <mxCell id="egKCZBeAwwwdmjYjbh6D-49" style="edgeStyle=none;curved=0;rounded=0;orthogonalLoop=1;jettySize=auto;html=1;exitX=0.5;exitY=0;exitDx=0;exitDy=0;entryX=0.75;entryY=1;entryDx=0;entryDy=0;fontSize=12;startSize=8;endSize=8;" edge="1" parent="1" source="egKCZBeAwwwdmjYjbh6D-47" target="egKCZBeAwwwdmjYjbh6D-42">
          <mxGeometry relative="1" as="geometry">
            <Array as="points">
              <mxPoint x="915" y="370" />
              <mxPoint x="768" y="370" />
            </Array>
          </mxGeometry>
        </mxCell>
        <mxCell id="egKCZBeAwwwdmjYjbh6D-55" style="edgeStyle=none;curved=1;rounded=0;orthogonalLoop=1;jettySize=auto;html=1;exitX=1;exitY=0.5;exitDx=0;exitDy=0;entryX=0;entryY=0.5;entryDx=0;entryDy=0;fontSize=12;startSize=8;endSize=8;" edge="1" parent="1" source="egKCZBeAwwwdmjYjbh6D-47" target="egKCZBeAwwwdmjYjbh6D-67">
          <mxGeometry relative="1" as="geometry">
            <mxPoint x="982.0000000000002" y="432.5" as="targetPoint" />
          </mxGeometry>
        </mxCell>
        <mxCell id="egKCZBeAwwwdmjYjbh6D-47" value="" style="rhombus;whiteSpace=wrap;html=1;" vertex="1" parent="1">
          <mxGeometry x="900" y="405" width="30" height="30" as="geometry" />
        </mxCell>
        <mxCell id="egKCZBeAwwwdmjYjbh6D-50" value="Yes" style="text;html=1;align=center;verticalAlign=middle;whiteSpace=wrap;rounded=0;" vertex="1" parent="1">
          <mxGeometry x="862" y="365" width="60" height="30" as="geometry" />
        </mxCell>
        <mxCell id="egKCZBeAwwwdmjYjbh6D-52" value="Call..." style="text;html=1;align=center;verticalAlign=middle;whiteSpace=wrap;rounded=0;" vertex="1" parent="1">
          <mxGeometry x="983" y="87" width="60" height="30" as="geometry" />
        </mxCell>
        <mxCell id="egKCZBeAwwwdmjYjbh6D-53" value="Call contact system" style="text;html=1;align=center;verticalAlign=middle;whiteSpace=wrap;rounded=0;" vertex="1" parent="1">
          <mxGeometry x="955" y="115" width="80" height="30" as="geometry" />
        </mxCell>
        <mxCell id="egKCZBeAwwwdmjYjbh6D-72" style="edgeStyle=none;curved=0;rounded=0;orthogonalLoop=1;jettySize=auto;html=1;exitX=1;exitY=0.5;exitDx=0;exitDy=0;entryX=0.5;entryY=1;entryDx=0;entryDy=0;fontSize=12;startSize=8;endSize=8;" edge="1" parent="1" source="egKCZBeAwwwdmjYjbh6D-54" target="egKCZBeAwwwdmjYjbh6D-71">
          <mxGeometry relative="1" as="geometry">
            <Array as="points">
              <mxPoint x="1240" y="420" />
            </Array>
          </mxGeometry>
        </mxCell>
        <mxCell id="egKCZBeAwwwdmjYjbh6D-54" value="Store reply to database" style="rounded=1;whiteSpace=wrap;html=1;fillColor=#C6FFBE;" vertex="1" parent="1">
          <mxGeometry x="1100" y="390" width="120" height="60" as="geometry" />
        </mxCell>
        <mxCell id="egKCZBeAwwwdmjYjbh6D-60" style="edgeStyle=none;curved=1;rounded=0;orthogonalLoop=1;jettySize=auto;html=1;exitX=0.5;exitY=1;exitDx=0;exitDy=0;entryX=0.5;entryY=0;entryDx=0;entryDy=0;fontSize=12;startSize=8;endSize=8;" edge="1" parent="1" source="egKCZBeAwwwdmjYjbh6D-57" target="egKCZBeAwwwdmjYjbh6D-59">
          <mxGeometry relative="1" as="geometry" />
        </mxCell>
        <mxCell id="egKCZBeAwwwdmjYjbh6D-57" value="Send email" style="rounded=0;whiteSpace=wrap;html=1;fillColor=#F0EFD1;" vertex="1" parent="1">
          <mxGeometry x="725" y="34" width="60" height="60" as="geometry" />
        </mxCell>
        <mxCell id="egKCZBeAwwwdmjYjbh6D-62" style="edgeStyle=none;curved=1;rounded=0;orthogonalLoop=1;jettySize=auto;html=1;exitX=1;exitY=0.5;exitDx=0;exitDy=0;entryX=0;entryY=0.5;entryDx=0;entryDy=0;fontSize=12;startSize=8;endSize=8;" edge="1" parent="1" source="egKCZBeAwwwdmjYjbh6D-59" target="egKCZBeAwwwdmjYjbh6D-14">
          <mxGeometry relative="1" as="geometry" />
        </mxCell>
        <mxCell id="egKCZBeAwwwdmjYjbh6D-59" value="" style="rhombus;whiteSpace=wrap;html=1;" vertex="1" parent="1">
          <mxGeometry x="740" y="155" width="30" height="30" as="geometry" />
        </mxCell>
        <mxCell id="egKCZBeAwwwdmjYjbh6D-61" value="Success?" style="text;html=1;align=center;verticalAlign=middle;whiteSpace=wrap;rounded=0;" vertex="1" parent="1">
          <mxGeometry x="754" y="110" width="60" height="30" as="geometry" />
        </mxCell>
        <mxCell id="egKCZBeAwwwdmjYjbh6D-63" value="Yes" style="text;html=1;align=center;verticalAlign=middle;whiteSpace=wrap;rounded=0;" vertex="1" parent="1">
          <mxGeometry x="748" y="146" width="60" height="30" as="geometry" />
        </mxCell>
        <mxCell id="egKCZBeAwwwdmjYjbh6D-64" value="" style="endArrow=none;dashed=1;html=1;dashPattern=1 3;strokeWidth=2;rounded=0;fontSize=12;startSize=8;endSize=8;curved=0;exitX=0.158;exitY=0.026;exitDx=0;exitDy=0;exitPerimeter=0;" edge="1" parent="1" source="egKCZBeAwwwdmjYjbh6D-81">
          <mxGeometry width="50" height="50" relative="1" as="geometry">
            <mxPoint x="715" y="169.9" as="sourcePoint" />
            <mxPoint x="740" y="169.9" as="targetPoint" />
            <Array as="points">
              <mxPoint x="720" y="170" />
            </Array>
          </mxGeometry>
        </mxCell>
        <mxCell id="egKCZBeAwwwdmjYjbh6D-66" value="No" style="text;html=1;align=center;verticalAlign=middle;whiteSpace=wrap;rounded=0;" vertex="1" parent="1">
          <mxGeometry x="695" y="146" width="60" height="30" as="geometry" />
        </mxCell>
        <mxCell id="egKCZBeAwwwdmjYjbh6D-68" style="edgeStyle=none;curved=1;rounded=0;orthogonalLoop=1;jettySize=auto;html=1;exitX=1;exitY=0.5;exitDx=0;exitDy=0;entryX=0;entryY=0.5;entryDx=0;entryDy=0;fontSize=12;startSize=8;endSize=8;" edge="1" parent="1" source="egKCZBeAwwwdmjYjbh6D-67" target="egKCZBeAwwwdmjYjbh6D-54">
          <mxGeometry relative="1" as="geometry" />
        </mxCell>
        <mxCell id="egKCZBeAwwwdmjYjbh6D-67" value="Parse the reply (remove original messages from end)&amp;nbsp;" style="rounded=1;whiteSpace=wrap;html=1;fillColor=#C6FFBE;" vertex="1" parent="1">
          <mxGeometry x="955" y="390" width="120" height="60" as="geometry" />
        </mxCell>
        <mxCell id="egKCZBeAwwwdmjYjbh6D-69" value="No" style="text;html=1;align=center;verticalAlign=middle;whiteSpace=wrap;rounded=0;" vertex="1" parent="1">
          <mxGeometry x="908" y="396" width="60" height="30" as="geometry" />
        </mxCell>
        <mxCell id="egKCZBeAwwwdmjYjbh6D-70" style="edgeStyle=none;curved=0;rounded=0;orthogonalLoop=1;jettySize=auto;html=1;exitX=0.5;exitY=0;exitDx=0;exitDy=0;entryX=0.145;entryY=1;entryDx=0;entryDy=-4.35;entryPerimeter=0;fontSize=12;startSize=8;endSize=8;" edge="1" parent="1" source="egKCZBeAwwwdmjYjbh6D-54" target="egKCZBeAwwwdmjYjbh6D-6">
          <mxGeometry relative="1" as="geometry">
            <Array as="points">
              <mxPoint x="1160" y="360" />
              <mxPoint x="1110" y="360" />
              <mxPoint x="1110" y="180" />
              <mxPoint x="1110" y="70" />
              <mxPoint x="1240" y="70" />
            </Array>
          </mxGeometry>
        </mxCell>
        <mxCell id="egKCZBeAwwwdmjYjbh6D-76" style="edgeStyle=none;curved=0;rounded=0;orthogonalLoop=1;jettySize=auto;html=1;exitX=0.5;exitY=0;exitDx=0;exitDy=0;entryX=0.5;entryY=1;entryDx=0;entryDy=0;fontSize=12;startSize=8;endSize=8;" edge="1" parent="1" source="egKCZBeAwwwdmjYjbh6D-71" target="egKCZBeAwwwdmjYjbh6D-75">
          <mxGeometry relative="1" as="geometry">
            <Array as="points">
              <mxPoint x="1240" y="260" />
              <mxPoint x="1300" y="260" />
            </Array>
          </mxGeometry>
        </mxCell>
        <mxCell id="egKCZBeAwwwdmjYjbh6D-71" value="Fetch full email conversation (originial + replies)" style="rounded=1;whiteSpace=wrap;html=1;fillColor=#C6FFBE;" vertex="1" parent="1">
          <mxGeometry x="1180" y="265" width="120" height="60" as="geometry" />
        </mxCell>
        <mxCell id="egKCZBeAwwwdmjYjbh6D-73" style="edgeStyle=none;curved=0;rounded=0;orthogonalLoop=1;jettySize=auto;html=1;exitX=0.25;exitY=0;exitDx=0;exitDy=0;entryX=0.5;entryY=1;entryDx=0;entryDy=0;entryPerimeter=0;fontSize=12;startSize=8;endSize=8;" edge="1" parent="1" source="egKCZBeAwwwdmjYjbh6D-71" target="egKCZBeAwwwdmjYjbh6D-6">
          <mxGeometry relative="1" as="geometry">
            <Array as="points">
              <mxPoint x="1210" y="160" />
              <mxPoint x="1260" y="160" />
            </Array>
          </mxGeometry>
        </mxCell>
        <mxCell id="egKCZBeAwwwdmjYjbh6D-75" value="Send questions &amp;amp; replies for News generator&amp;nbsp;" style="rounded=0;whiteSpace=wrap;html=1;fillColor=#C6FFBE;" vertex="1" parent="1">
          <mxGeometry x="1240" y="185" width="120" height="60" as="geometry" />
        </mxCell>
        <mxCell id="egKCZBeAwwwdmjYjbh6D-77" value="" style="endArrow=none;html=1;rounded=0;fontSize=12;startSize=8;endSize=8;curved=1;" edge="1" parent="1">
          <mxGeometry width="50" height="50" relative="1" as="geometry">
            <mxPoint x="1310" y="185" as="sourcePoint" />
            <mxPoint x="1310" y="-45" as="targetPoint" />
          </mxGeometry>
        </mxCell>
        <mxCell id="egKCZBeAwwwdmjYjbh6D-78" value="" style="html=1;verticalLabelPosition=bottom;align=center;labelBackgroundColor=#ffffff;verticalAlign=top;strokeWidth=2;strokeColor=#0080F0;shadow=0;dashed=0;shape=mxgraph.ios7.icons.mail;" vertex="1" parent="1">
          <mxGeometry x="710" y="38" width="30" height="16.5" as="geometry" />
        </mxCell>
        <mxCell id="egKCZBeAwwwdmjYjbh6D-79" value="Poll email" style="text;html=1;align=center;verticalAlign=middle;whiteSpace=wrap;rounded=0;" vertex="1" parent="1">
          <mxGeometry x="1041" y="190" width="60" height="30" as="geometry" />
        </mxCell>
        <mxCell id="egKCZBeAwwwdmjYjbh6D-80" value="" style="endArrow=none;html=1;rounded=0;fontSize=12;startSize=8;endSize=8;curved=1;startArrow=classic;startFill=1;" edge="1" parent="1">
          <mxGeometry width="50" height="50" relative="1" as="geometry">
            <mxPoint x="839" y="251" as="sourcePoint" />
            <mxPoint x="939" y="251" as="targetPoint" />
          </mxGeometry>
        </mxCell>
        <mxCell id="egKCZBeAwwwdmjYjbh6D-81" value="Not done..." style="rounded=1;whiteSpace=wrap;html=1;fillColor=#F0EFD1;" vertex="1" parent="1">
          <mxGeometry x="710" y="190.5" width="60" height="29" as="geometry" />
        </mxCell>
        <mxCell id="egKCZBeAwwwdmjYjbh6D-82" value="&lt;span style=&quot;&quot;&gt;&lt;span style=&quot;font-size: 12px;&quot;&gt;&lt;b&gt;Contact&amp;nbsp;&lt;/b&gt;&lt;/span&gt;&lt;b&gt;sytem - email; Updated 21.5.2025&amp;nbsp;&lt;/b&gt;&lt;/span&gt;" style="text;html=1;align=left;verticalAlign=bottom;whiteSpace=wrap;rounded=0;" vertex="1" parent="1">
          <mxGeometry x="700" y="-100" width="280" height="20" as="geometry" />
        </mxCell>
      </root>
    </mxGraphModel>
  </diagram>
  <diagram id="P6I3l9U3mSOlDs17gssJ" name="db_tables">
    <mxGraphModel dx="1260" dy="1170" grid="1" gridSize="10" guides="1" tooltips="1" connect="1" arrows="1" fold="1" page="0" pageScale="1" pageWidth="850" pageHeight="1100" math="0" shadow="0">
      <root>
        <mxCell id="0" />
        <mxCell id="1" parent="0" />
        <mxCell id="8S_-8nBEICqBJ5GQcfzT-1" value="News" style="swimlane;fontStyle=0;childLayout=stackLayout;horizontal=1;startSize=30;horizontalStack=0;resizeParent=1;resizeParentMax=0;resizeLast=0;collapsible=1;marginBottom=0;whiteSpace=wrap;html=1;" vertex="1" parent="1">
          <mxGeometry x="-110" y="-80" width="140" height="120" as="geometry" />
        </mxCell>
        <mxCell id="8S_-8nBEICqBJ5GQcfzT-2" value="id (PK)" style="text;strokeColor=none;fillColor=none;align=left;verticalAlign=middle;spacingLeft=4;spacingRight=4;overflow=hidden;points=[[0,0.5],[1,0.5]];portConstraint=eastwest;rotatable=0;whiteSpace=wrap;html=1;" vertex="1" parent="8S_-8nBEICqBJ5GQcfzT-1">
          <mxGeometry y="30" width="140" height="30" as="geometry" />
        </mxCell>
        <mxCell id="8S_-8nBEICqBJ5GQcfzT-3" value="body" style="text;strokeColor=none;fillColor=none;align=left;verticalAlign=middle;spacingLeft=4;spacingRight=4;overflow=hidden;points=[[0,0.5],[1,0.5]];portConstraint=eastwest;rotatable=0;whiteSpace=wrap;html=1;" vertex="1" parent="8S_-8nBEICqBJ5GQcfzT-1">
          <mxGeometry y="60" width="140" height="30" as="geometry" />
        </mxCell>
        <mxCell id="8S_-8nBEICqBJ5GQcfzT-4" value="etc..." style="text;strokeColor=none;fillColor=none;align=left;verticalAlign=middle;spacingLeft=4;spacingRight=4;overflow=hidden;points=[[0,0.5],[1,0.5]];portConstraint=eastwest;rotatable=0;whiteSpace=wrap;html=1;" vertex="1" parent="8S_-8nBEICqBJ5GQcfzT-1">
          <mxGeometry y="90" width="140" height="30" as="geometry" />
        </mxCell>
        <mxCell id="8S_-8nBEICqBJ5GQcfzT-5" value="sent_emails" style="swimlane;fontStyle=0;childLayout=stackLayout;horizontal=1;startSize=30;horizontalStack=0;resizeParent=1;resizeParentMax=0;resizeLast=0;collapsible=1;marginBottom=0;whiteSpace=wrap;html=1;" vertex="1" parent="1">
          <mxGeometry x="-110" y="100" width="140" height="210" as="geometry" />
        </mxCell>
        <mxCell id="8S_-8nBEICqBJ5GQcfzT-6" value="id (PK)" style="text;strokeColor=none;fillColor=none;align=left;verticalAlign=middle;spacingLeft=4;spacingRight=4;overflow=hidden;points=[[0,0.5],[1,0.5]];portConstraint=eastwest;rotatable=0;whiteSpace=wrap;html=1;" vertex="1" parent="8S_-8nBEICqBJ5GQcfzT-5">
          <mxGeometry y="30" width="140" height="30" as="geometry" />
        </mxCell>
        <mxCell id="8S_-8nBEICqBJ5GQcfzT-19" value="news_id (FK)" style="text;strokeColor=none;fillColor=none;align=left;verticalAlign=middle;spacingLeft=4;spacingRight=4;overflow=hidden;points=[[0,0.5],[1,0.5]];portConstraint=eastwest;rotatable=0;whiteSpace=wrap;html=1;" vertex="1" parent="8S_-8nBEICqBJ5GQcfzT-5">
          <mxGeometry y="60" width="140" height="30" as="geometry" />
        </mxCell>
        <mxCell id="8S_-8nBEICqBJ5GQcfzT-7" value="message_id (U)" style="text;strokeColor=none;fillColor=none;align=left;verticalAlign=middle;spacingLeft=4;spacingRight=4;overflow=hidden;points=[[0,0.5],[1,0.5]];portConstraint=eastwest;rotatable=0;whiteSpace=wrap;html=1;" vertex="1" parent="8S_-8nBEICqBJ5GQcfzT-5">
          <mxGeometry y="90" width="140" height="30" as="geometry" />
        </mxCell>
        <mxCell id="8S_-8nBEICqBJ5GQcfzT-8" value="recipient" style="text;strokeColor=none;fillColor=none;align=left;verticalAlign=middle;spacingLeft=4;spacingRight=4;overflow=hidden;points=[[0,0.5],[1,0.5]];portConstraint=eastwest;rotatable=0;whiteSpace=wrap;html=1;" vertex="1" parent="8S_-8nBEICqBJ5GQcfzT-5">
          <mxGeometry y="120" width="140" height="30" as="geometry" />
        </mxCell>
        <mxCell id="8S_-8nBEICqBJ5GQcfzT-17" value="subject" style="text;strokeColor=none;fillColor=none;align=left;verticalAlign=middle;spacingLeft=4;spacingRight=4;overflow=hidden;points=[[0,0.5],[1,0.5]];portConstraint=eastwest;rotatable=0;whiteSpace=wrap;html=1;" vertex="1" parent="8S_-8nBEICqBJ5GQcfzT-5">
          <mxGeometry y="150" width="140" height="30" as="geometry" />
        </mxCell>
        <mxCell id="8S_-8nBEICqBJ5GQcfzT-18" value="sent_at" style="text;strokeColor=none;fillColor=none;align=left;verticalAlign=middle;spacingLeft=4;spacingRight=4;overflow=hidden;points=[[0,0.5],[1,0.5]];portConstraint=eastwest;rotatable=0;whiteSpace=wrap;html=1;" vertex="1" parent="8S_-8nBEICqBJ5GQcfzT-5">
          <mxGeometry y="180" width="140" height="30" as="geometry" />
        </mxCell>
        <mxCell id="8S_-8nBEICqBJ5GQcfzT-9" value="questions" style="swimlane;fontStyle=0;childLayout=stackLayout;horizontal=1;startSize=30;horizontalStack=0;resizeParent=1;resizeParentMax=0;resizeLast=0;collapsible=1;marginBottom=0;whiteSpace=wrap;html=1;" vertex="1" parent="1">
          <mxGeometry x="100" y="100" width="140" height="180" as="geometry" />
        </mxCell>
        <mxCell id="8S_-8nBEICqBJ5GQcfzT-10" value="id (PK)" style="text;strokeColor=none;fillColor=none;align=left;verticalAlign=middle;spacingLeft=4;spacingRight=4;overflow=hidden;points=[[0,0.5],[1,0.5]];portConstraint=eastwest;rotatable=0;whiteSpace=wrap;html=1;" vertex="1" parent="8S_-8nBEICqBJ5GQcfzT-9">
          <mxGeometry y="30" width="140" height="30" as="geometry" />
        </mxCell>
        <mxCell id="8S_-8nBEICqBJ5GQcfzT-11" value="email_id (FK)" style="text;strokeColor=none;fillColor=none;align=left;verticalAlign=middle;spacingLeft=4;spacingRight=4;overflow=hidden;points=[[0,0.5],[1,0.5]];portConstraint=eastwest;rotatable=0;whiteSpace=wrap;html=1;" vertex="1" parent="8S_-8nBEICqBJ5GQcfzT-9">
          <mxGeometry y="60" width="140" height="30" as="geometry" />
        </mxCell>
        <mxCell id="8S_-8nBEICqBJ5GQcfzT-12" value="topic" style="text;strokeColor=none;fillColor=none;align=left;verticalAlign=middle;spacingLeft=4;spacingRight=4;overflow=hidden;points=[[0,0.5],[1,0.5]];portConstraint=eastwest;rotatable=0;whiteSpace=wrap;html=1;" vertex="1" parent="8S_-8nBEICqBJ5GQcfzT-9">
          <mxGeometry y="90" width="140" height="30" as="geometry" />
        </mxCell>
        <mxCell id="8S_-8nBEICqBJ5GQcfzT-20" value="question" style="text;strokeColor=none;fillColor=none;align=left;verticalAlign=middle;spacingLeft=4;spacingRight=4;overflow=hidden;points=[[0,0.5],[1,0.5]];portConstraint=eastwest;rotatable=0;whiteSpace=wrap;html=1;" vertex="1" parent="8S_-8nBEICqBJ5GQcfzT-9">
          <mxGeometry y="120" width="140" height="30" as="geometry" />
        </mxCell>
        <mxCell id="8S_-8nBEICqBJ5GQcfzT-21" value="position" style="text;strokeColor=none;fillColor=none;align=left;verticalAlign=middle;spacingLeft=4;spacingRight=4;overflow=hidden;points=[[0,0.5],[1,0.5]];portConstraint=eastwest;rotatable=0;whiteSpace=wrap;html=1;" vertex="1" parent="8S_-8nBEICqBJ5GQcfzT-9">
          <mxGeometry y="150" width="140" height="30" as="geometry" />
        </mxCell>
        <mxCell id="8S_-8nBEICqBJ5GQcfzT-13" value="replies" style="swimlane;fontStyle=0;childLayout=stackLayout;horizontal=1;startSize=30;horizontalStack=0;resizeParent=1;resizeParentMax=0;resizeLast=0;collapsible=1;marginBottom=0;whiteSpace=wrap;html=1;" vertex="1" parent="1">
          <mxGeometry x="-320" y="100" width="140" height="270" as="geometry" />
        </mxCell>
        <mxCell id="8S_-8nBEICqBJ5GQcfzT-14" value="id (PK)" style="text;strokeColor=none;fillColor=none;align=left;verticalAlign=middle;spacingLeft=4;spacingRight=4;overflow=hidden;points=[[0,0.5],[1,0.5]];portConstraint=eastwest;rotatable=0;whiteSpace=wrap;html=1;" vertex="1" parent="8S_-8nBEICqBJ5GQcfzT-13">
          <mxGeometry y="30" width="140" height="30" as="geometry" />
        </mxCell>
        <mxCell id="8S_-8nBEICqBJ5GQcfzT-15" value="uid (U)" style="text;strokeColor=none;fillColor=none;align=left;verticalAlign=middle;spacingLeft=4;spacingRight=4;overflow=hidden;points=[[0,0.5],[1,0.5]];portConstraint=eastwest;rotatable=0;whiteSpace=wrap;html=1;" vertex="1" parent="8S_-8nBEICqBJ5GQcfzT-13">
          <mxGeometry y="60" width="140" height="30" as="geometry" />
        </mxCell>
        <mxCell id="8S_-8nBEICqBJ5GQcfzT-26" value="email_id (FK)" style="text;strokeColor=none;fillColor=none;align=left;verticalAlign=middle;spacingLeft=4;spacingRight=4;overflow=hidden;points=[[0,0.5],[1,0.5]];portConstraint=eastwest;rotatable=0;whiteSpace=wrap;html=1;" vertex="1" parent="8S_-8nBEICqBJ5GQcfzT-13">
          <mxGeometry y="90" width="140" height="30" as="geometry" />
        </mxCell>
        <mxCell id="8S_-8nBEICqBJ5GQcfzT-16" value="from_address" style="text;strokeColor=none;fillColor=none;align=left;verticalAlign=middle;spacingLeft=4;spacingRight=4;overflow=hidden;points=[[0,0.5],[1,0.5]];portConstraint=eastwest;rotatable=0;whiteSpace=wrap;html=1;" vertex="1" parent="8S_-8nBEICqBJ5GQcfzT-13">
          <mxGeometry y="120" width="140" height="30" as="geometry" />
        </mxCell>
        <mxCell id="8S_-8nBEICqBJ5GQcfzT-22" value="in_reply_to" style="text;strokeColor=none;fillColor=none;align=left;verticalAlign=middle;spacingLeft=4;spacingRight=4;overflow=hidden;points=[[0,0.5],[1,0.5]];portConstraint=eastwest;rotatable=0;whiteSpace=wrap;html=1;" vertex="1" parent="8S_-8nBEICqBJ5GQcfzT-13">
          <mxGeometry y="150" width="140" height="30" as="geometry" />
        </mxCell>
        <mxCell id="8S_-8nBEICqBJ5GQcfzT-23" value="reference_header" style="text;strokeColor=none;fillColor=none;align=left;verticalAlign=middle;spacingLeft=4;spacingRight=4;overflow=hidden;points=[[0,0.5],[1,0.5]];portConstraint=eastwest;rotatable=0;whiteSpace=wrap;html=1;" vertex="1" parent="8S_-8nBEICqBJ5GQcfzT-13">
          <mxGeometry y="180" width="140" height="30" as="geometry" />
        </mxCell>
        <mxCell id="8S_-8nBEICqBJ5GQcfzT-25" value="body" style="text;strokeColor=none;fillColor=none;align=left;verticalAlign=middle;spacingLeft=4;spacingRight=4;overflow=hidden;points=[[0,0.5],[1,0.5]];portConstraint=eastwest;rotatable=0;whiteSpace=wrap;html=1;" vertex="1" parent="8S_-8nBEICqBJ5GQcfzT-13">
          <mxGeometry y="210" width="140" height="30" as="geometry" />
        </mxCell>
        <mxCell id="8S_-8nBEICqBJ5GQcfzT-24" value="received_at" style="text;strokeColor=none;fillColor=none;align=left;verticalAlign=middle;spacingLeft=4;spacingRight=4;overflow=hidden;points=[[0,0.5],[1,0.5]];portConstraint=eastwest;rotatable=0;whiteSpace=wrap;html=1;" vertex="1" parent="8S_-8nBEICqBJ5GQcfzT-13">
          <mxGeometry y="240" width="140" height="30" as="geometry" />
        </mxCell>
        <mxCell id="8S_-8nBEICqBJ5GQcfzT-29" style="edgeStyle=none;curved=0;rounded=0;orthogonalLoop=1;jettySize=auto;html=1;exitX=0;exitY=0.5;exitDx=0;exitDy=0;entryX=1;entryY=0.5;entryDx=0;entryDy=0;fontSize=12;startSize=8;endSize=8;" edge="1" parent="1" source="8S_-8nBEICqBJ5GQcfzT-6" target="8S_-8nBEICqBJ5GQcfzT-26">
          <mxGeometry relative="1" as="geometry">
            <Array as="points">
              <mxPoint x="-150" y="145" />
              <mxPoint x="-150" y="205" />
            </Array>
          </mxGeometry>
        </mxCell>
        <mxCell id="8S_-8nBEICqBJ5GQcfzT-30" style="edgeStyle=none;curved=0;rounded=0;orthogonalLoop=1;jettySize=auto;html=1;exitX=1;exitY=0.5;exitDx=0;exitDy=0;entryX=0;entryY=0.5;entryDx=0;entryDy=0;fontSize=12;startSize=8;endSize=8;" edge="1" parent="1" source="8S_-8nBEICqBJ5GQcfzT-6" target="8S_-8nBEICqBJ5GQcfzT-11">
          <mxGeometry relative="1" as="geometry">
            <Array as="points">
              <mxPoint x="50" y="145" />
              <mxPoint x="50" y="175" />
            </Array>
          </mxGeometry>
        </mxCell>
        <mxCell id="8S_-8nBEICqBJ5GQcfzT-31" style="edgeStyle=none;curved=0;rounded=0;orthogonalLoop=1;jettySize=auto;html=1;exitX=0;exitY=0.5;exitDx=0;exitDy=0;entryX=0;entryY=0.5;entryDx=0;entryDy=0;fontSize=12;startSize=8;endSize=8;" edge="1" parent="1" source="8S_-8nBEICqBJ5GQcfzT-2" target="8S_-8nBEICqBJ5GQcfzT-19">
          <mxGeometry relative="1" as="geometry">
            <Array as="points">
              <mxPoint x="-140" y="-35" />
              <mxPoint x="-140" y="175" />
            </Array>
          </mxGeometry>
        </mxCell>
      </root>
    </mxGraphModel>
  </diagram>
</mxfile>
